<?xml version="1.0" encoding="UTF-8"?>
<svg width="232px" height="151px" viewBox="0 0 232 151" version="1.1" xmlns="http://www.w3.org/2000/svg" xmlns:xlink="http://www.w3.org/1999/xlink">
    <!-- Generator: Sketch 64 (93537) - https://sketch.com -->
    <title>EmptyState</title>
    <desc>Created with Sketch.</desc>
    <g id="etapa-2" stroke="none" stroke-width="1" fill="none" fill-rule="evenodd">
        <g id="Menu-Online---sin-notificaciones" transform="translate(-997.000000, -551.000000)">
            <g id="NoItemsCart" transform="translate(952.000000, 512.000000)">
                <g id="Order-Success" stroke-width="1" fill-rule="evenodd" transform="translate(45.790000, 67.480000)">
                    <path d="M13.8910328,5.97810642 C13.1949867,6.03217164 12.5462437,5.64695709 12.2691768,5.0116908 C10.8500538,1.74074511 9.05925539,-0.306975361 7.67392099,0.0376903867 C6.28858659,0.38911428 5.68714723,3.03831003 5.97772958,6.59309816 C6.03179141,7.2891878 5.64660355,7.93797145 5.01137703,8.21505568 C1.74063612,9.63426754 -0.306956142,11.4251781 0.037688027,12.8105992 C0.389089919,14.1960203 3.03811723,14.7974948 6.59268281,14.5068942 C7.28872887,14.452829 7.9374719,14.8380439 8.21453878,15.4733102 C9.6336618,18.7442559 11.4244602,20.7919762 12.8097946,20.4473105 C14.195129,20.0958866 14.7965683,17.4466932 14.505986,13.8919051 C14.4519242,13.1958154 14.8371149,12.5470318 15.4723414,12.2699475 C18.7430824,10.8439775 20.7974297,9.05982259 20.4460278,7.67440145 C20.0946259,6.28898031 17.4455983,5.68750588 13.8910328,5.97810642 Z" id="Vector" fill="#E06738" fill-rule="nonzero"></path>
                    <path d="M225.251664,81.3281961 C224.606073,81.1085621 224.166802,80.5029016 224.166802,79.8173772 C224.160146,76.3098878 223.354823,73.7541519 221.963808,73.5212067 C220.579449,73.2949171 218.988764,75.4579759 217.863972,78.779109 C217.644338,79.4247 217.038667,79.8639711 216.353143,79.8639711 C212.845656,79.8706267 210.289921,80.67595 210.056976,82.0669656 C209.830686,83.4513257 211.993744,85.0420119 215.314876,86.1668045 C215.960466,86.3864386 216.399737,86.9920888 216.399737,87.6776133 C216.406393,91.1851027 217.211716,93.740849 218.602731,93.9737942 C219.98709,94.2000838 221.577775,92.037025 222.702567,88.715892 C222.922201,88.0703009 223.527872,87.6310296 224.213396,87.6310296 C227.727539,87.624374 230.283274,86.8190507 230.509563,85.428035 C230.735853,84.0436749 228.572795,82.4529888 225.251664,81.3281961 Z" id="Vector" fill="#EDB82C" fill-rule="nonzero"></path>
                </g>
                <path d="M187.045741,76.415 L108.26732,76.415 L116.404928,86.8776397 L106.486388,93.49 L188.89,93.49 L180.071605,86.8762041 L187.045741,76.415 Z" id="Rectangle" stroke="#BEBEBF" stroke-width="1" fill="#FAFAFA" fill-rule="evenodd"></path>
                <path d="M75.915,171.7125 L101.767192,171.7125 M60.4041553,171.7125 L68.685,171.7125 M232.719155,171.7125 L236.18,171.7125 M200.03,171.7125 L227.05542,171.7125" id="line" stroke="#BFC5CF" stroke-width="2.5" stroke-linecap="round" stroke-linejoin="round"></path>
                <path d="M103.637403,144.858887 L103.637403,96.4 C103.637403,94.4034906 105.275782,92.785 107.296824,92.785 L191.019621,92.785 C192.335649,92.785 193.4025,93.8639938 193.4025,95.195 L193.4025,183.16 C193.4025,185.822012 191.268798,187.98 188.636743,187.98 L108.403161,187.98 C105.771106,187.98 103.637403,185.822012 103.637403,183.16 L103.637403,165.150898 L103.637403,160.265 M103.637403,155.32144 L103.637403,149.894233" id="bag" stroke="#BFC5CF" stroke-width="2.5" fill="#F0F1F1" fill-rule="evenodd" stroke-linecap="round"></path>
                <path d="M190.39,75.915 L190.39,90.375 C190.39,91.7060062 189.421672,92.785 188.227179,92.785 L108.202821,92.785 C107.008328,92.785 106.04,91.7060062 106.04,90.375 L106.04,75.915" id="Rectangle" stroke="#BFC5CF" stroke-width="2.5" fill="#F1F1F1" fill-rule="evenodd" transform="translate(148.215000, 84.350000) rotate(-180.000000) translate(-148.215000, -84.350000) "></path>
                <circle id="Oval" stroke="#BFC5CF" stroke-width="2.5" fill="#FAFAFA" fill-rule="evenodd" cx="128.3325" cy="113.8725" r="4.2175"></circle>
                <circle id="Oval" stroke="#BFC5CF" stroke-width="2.5" fill="#FAFAFA" fill-rule="evenodd" cx="168.0975" cy="113.8725" r="4.2175"></circle>
                <path d="M167.495,137.37 C167.495,126.72195 158.86305,118.09 148.215,118.09 C137.56695,118.09 128.935,126.72195 128.935,137.37" id="Oval" stroke="#BFC5CF" stroke-width="2.5" stroke-linecap="round" transform="translate(148.215000, 127.730000) scale(1, -1) translate(-148.215000, -127.730000) "></path>
                <path d="M107.318547,77.1161755 L116.077266,85.7620714 C116.470314,86.1500561 116.474418,86.7832077 116.086433,87.1762553 C116.019291,87.244274 115.942744,87.302316 115.859128,87.34861 L106.04,92.785 L106.04,92.785" id="Path-3" stroke="#BFC5CF" stroke-width="2.5" stroke-linecap="round"></path>
                <path d="M181.844508,77.2035498 L190.230449,85.7566223 C190.617102,86.1509806 190.610855,86.7841148 190.216496,87.1707671 C190.150666,87.2353115 190.076225,87.2904423 189.995291,87.334593 L180.003915,92.785 L180.003915,92.785" id="Path-3" stroke="#BFC5CF" stroke-width="2.5" stroke-linecap="round" transform="translate(185.580211, 84.994275) scale(-1, 1) translate(-185.580211, -84.994275) "></path>
                <path d="M179.665029,46.1547949 L166.29,61.1608105 M148.215,40.97 L148.215,61.1608105 M116.885,46.1547949 L130.260029,61.1608105" id="lines" stroke="#BFC5CF" stroke-width="2.5" fill="#FAFAFA" fill-rule="evenodd" stroke-linecap="round" stroke-linejoin="round"></path>
            </g>
        </g>
    </g>
</svg>